<svg width="22" height="24" viewBox="0 0 22 24" fill="none" xmlns="http://www.w3.org/2000/svg">
<path d="M17.3926 0H5.8073C4.77435 0.0025631 3.7843 0.413369 3.05298 1.14286C2.32166 1.87235 1.90838 2.86137 1.90323 3.89431H0.976017C0.439208 3.89431 0 4.32375 0 4.87032C0 5.40713 0.439208 5.84634 0.976017 5.84634H1.90323V8.4523H0.976017C0.439208 8.4523 0 8.89151 0 9.42832C0 9.97489 0.439208 10.4043 0.976017 10.4043H1.90323V13.0201H0.976017C0.439208 13.0201 0 13.4593 0 13.9961C0 14.5329 0.439208 14.9721 0.976017 14.9721H1.90323V17.5878H0.976017C0.439208 17.5878 0 18.0173 0 18.5638C0 19.1006 0.439208 19.5399 0.976017 19.5399H1.90323C1.91299 21.6773 3.66006 23.4244 5.8073 23.4244H17.3926C19.5399 23.4244 21.2967 21.6773 21.2967 19.5203V3.90407C21.2967 1.75683 19.5399 0 17.3926 0ZM7.79837 6.34411C7.79837 5.53402 8.4523 4.88008 9.2624 4.88008H15.9286C16.7387 4.88008 17.3926 5.53402 17.3926 6.34411V9.29168C17.3926 10.092 16.7387 10.7557 15.9286 10.7557H9.2624C8.4523 10.7557 7.79837 10.092 7.79837 9.29168V6.34411ZM16.4156 15.6319H8.77341C8.51456 15.6319 8.2663 15.5291 8.08327 15.346C7.90023 15.163 7.7974 14.9147 7.7974 14.6559C7.7974 14.397 7.90023 14.1488 8.08327 13.9657C8.2663 13.7827 8.51456 13.6799 8.77341 13.6799H16.4156C16.6745 13.6799 16.9227 13.7827 17.1058 13.9657C17.2888 14.1488 17.3916 14.397 17.3916 14.6559C17.3916 14.9147 17.2888 15.163 17.1058 15.346C16.9227 15.5291 16.6745 15.6319 16.4156 15.6319Z" fill="white"/>
</svg>
