<svg width="24" height="23" viewBox="0 0 24 23" fill="none" xmlns="http://www.w3.org/2000/svg">
<path d="M14.1987 11.5002L23.5439 2.54398C24.152 1.96141 24.152 1.01944 23.5439 0.436932C22.936 -0.145644 21.9531 -0.145644 21.3453 0.436932L11.9998 9.39309L2.65474 0.436932C2.04656 -0.145644 1.06403 -0.145644 0.456136 0.436932C-0.152045 1.01951 -0.152045 1.96141 0.456136 2.54398L9.80117 11.5002L0.456209 20.4564C-0.151972 21.0389 -0.151972 21.9809 0.456209 22.5634C0.600403 22.702 0.77175 22.8119 0.960404 22.8868C1.14906 22.9618 1.3513 23.0002 1.55551 23C1.95348 23 2.3516 22.854 2.65482 22.5634L11.9998 13.6073L21.3453 22.5634C21.4895 22.702 21.6609 22.8119 21.8495 22.8868C22.0382 22.9617 22.2404 23.0002 22.4446 23C22.8426 23 23.2407 22.854 23.5439 22.5634C24.152 21.9808 24.152 21.0389 23.5439 20.4564L14.1987 11.5002Z" fill="white"/>
</svg>
