<svg width="20" height="11" viewBox="0 0 20 11" fill="none" xmlns="http://www.w3.org/2000/svg">
<path d="M12.4997 1.55273H14.9997C15.5469 1.55273 16.0887 1.66051 16.5942 1.8699C17.0997 2.0793 17.5591 2.38621 17.946 2.77312C18.3329 3.16004 18.6398 3.61937 18.8492 4.12489C19.0586 4.63042 19.1664 5.17223 19.1664 5.71941C19.1664 6.26658 19.0586 6.8084 18.8492 7.31393C18.6398 7.81945 18.3329 8.27878 17.946 8.66569C17.5591 9.0526 17.0997 9.35952 16.5942 9.56891C16.0887 9.77831 15.5469 9.88608 14.9997 9.88608H12.4997M7.49969 9.88608H4.99968C4.45251 9.88608 3.91069 9.77831 3.40516 9.56891C2.89964 9.35952 2.44031 9.0526 2.0534 8.66569C1.272 7.88429 0.833008 6.82448 0.833008 5.71941C0.833008 4.61434 1.272 3.55453 2.0534 2.77312C2.8348 1.99172 3.89461 1.55273 4.99968 1.55273H7.49969" stroke="black" stroke-width="1.5" stroke-linecap="round" stroke-linejoin="round"/>
</svg>
