<svg width="22" height="25" viewBox="0 0 22 25" fill="none" xmlns="http://www.w3.org/2000/svg">
<path d="M0.00516319 10.277C0.0733681 6.72159 0.568703 4.09932 0.56193 4.0969C0.767996 3.69492 1.12934 3.35874 1.57146 3.18701C4.4738 2.06139 7.32777 0.987039 10.1102 0.0703818C10.3946 -0.0234606 10.6945 -0.0234606 10.9784 0.0703818C13.7603 0.98462 16.6138 2.05704 19.5157 3.18121C19.906 3.33262 20.2335 3.61269 20.4468 3.95323C20.4304 3.95517 21.0433 5.8683 21.1478 10.0936C21.2097 14.3194 20.6834 15.5853 20.7008 15.5868C20.4159 16.5155 19.8828 17.4603 19.119 18.4209C18.2653 19.4938 17.1116 20.602 15.718 21.6914C13.4111 23.502 11.2522 24.5841 11.1618 24.6223C10.9659 24.718 10.7583 24.7669 10.5445 24.7664C10.3302 24.7664 10.1227 24.7176 9.92731 24.6213C9.83637 24.5831 7.67509 23.4976 5.36918 21.6875C3.97509 20.5972 2.8214 19.489 1.96715 18.4166C1.14869 17.3877 0.595306 16.3782 0.327808 15.3865C0.338449 15.3851 -0.0485306 13.8333 0.00516319 10.2774V10.277ZM9.39618 13.0501V15.3028C9.39618 15.9375 9.91038 16.4517 10.545 16.4522C11.1797 16.4522 11.6943 15.938 11.6943 15.3033V13.0821C12.5225 12.6704 13.0923 11.8162 13.0923 10.8289C13.0923 9.43963 11.9662 8.31304 10.5769 8.31304C9.18769 8.31304 8.06158 9.43915 8.0611 10.8284C8.0611 11.791 8.6019 12.6274 9.39618 13.0501Z" fill="white"/>
</svg>
