<svg width="24" height="24" viewBox="0 0 24 24" fill="none" xmlns="http://www.w3.org/2000/svg">
<path d="M16.4703 4.27009V1.42742e-05C16.5787 -0.00063554 16.6861 0.020907 16.7864 0.0634067C16.8868 0.105906 16.978 0.168527 17.055 0.247678L22.8196 6.22578C22.8959 6.30558 22.9563 6.40022 22.9973 6.50427C23.0382 6.60832 23.059 6.71974 23.0584 6.83213H18.9408C18.2856 6.83213 17.6572 6.5622 17.1939 6.08173C16.7306 5.60125 16.4703 4.94958 16.4703 4.27009ZM5.7646 20.0523V10.2482H4.11757C3.02552 10.2482 1.9782 10.6981 1.20601 11.4989C0.433814 12.2997 0 13.3858 0 14.5183V20.0523C1.13909e-08 20.845 0.30367 21.6053 0.844205 22.1659C1.38474 22.7264 2.11786 23.0413 2.8823 23.0413C3.64673 23.0413 4.37985 22.7264 4.92039 22.1659C5.46093 21.6053 5.7646 20.845 5.7646 20.0523ZM18.9408 8.54016H23.0584V19.6424C23.0584 20.7748 22.6246 21.861 21.8524 22.6617C21.0802 23.4625 20.0329 23.9124 18.9408 23.9124H2.8823C3.86447 23.9102 4.8058 23.5046 5.5003 22.7843C6.1948 22.0641 6.58593 21.0879 6.58811 20.0694V4.27009C6.58811 3.13759 7.02192 2.05148 7.79412 1.25069C8.56631 0.449896 9.61363 1.42742e-05 10.7057 1.42742e-05H14.8232V4.27009C14.8232 5.40258 15.2571 6.48869 16.0293 7.28949C16.8014 8.09028 17.8488 8.54016 18.9408 8.54016ZM9.88216 13.6642H14.8232V11.9562H9.88216V13.6642ZM19.7643 15.3723H9.88216V17.0803H19.7643V15.3723Z" fill="white"/>
</svg>
